
<svg xmlns="http://www.w3.org/2000/svg" xmlns:xlink="http://www.w3.org/1999/xlink" width="0" height="0">
<symbol id="icon2" width="64" height="64" viewBox="0 0 64 64" fill="none">
  <path d="M0.5 16C0.5 7.43959 7.43959 0.5 16 0.5H48C56.5604 0.5 63.5 7.43959 63.5 16V48C63.5 56.5604 56.5604 63.5 48 63.5H16C7.43959 63.5 0.5 56.5604 0.5 48V16Z" stroke="#3DB370" stroke-opacity="0.1"/>
  <path d="M48.8874 27.3101V46.9711C48.8874 48.2952 47.7396 49.369 46.3242 49.369H18.1292C16.7138 49.369 15.566 48.2952 15.566 46.9711C15.566 28.3841 15.5643 31.8659 15.5716 27.3101H48.8874Z" fill="var(--color-1)"/>
  <path d="M48.8875 27.3101V31.8509C48.8875 32.8336 48.0454 33.6477 46.995 33.6517C46.9833 33.6518 17.4788 33.6518 17.4575 33.6517C16.4074 33.6474 15.566 32.8333 15.566 31.8509C15.566 30.5403 15.565 31.4452 15.5716 27.3101H48.8875Z" fill="var(--color-2)"/>
  <path d="M38.7148 38.6534V49.369H25.7386V38.6534C25.7386 37.3293 26.8864 36.2555 28.3018 36.2555H36.1516C37.5669 36.2555 38.7148 37.3293 38.7148 38.6534Z" fill="var(--color-3)"/>
  <path d="M50.8098 27.3099C50.8098 29.7091 48.7302 31.6561 46.164 31.6561C43.5984 31.6561 41.5182 29.7101 41.5182 27.3099C41.5182 29.7101 39.4381 31.6561 36.8725 31.6561C34.3069 31.6561 32.2267 29.7101 32.2267 27.3099C32.2267 29.7101 30.1465 31.6561 27.5809 31.6561C25.0153 31.6561 22.9351 29.7101 22.9351 27.3099C22.9311 29.6944 20.8333 31.6561 18.2894 31.6561C15.7485 31.6561 13.6476 29.6968 13.6436 27.3099C13.6436 23.5327 13.6325 23.7651 13.6716 23.5917C13.7101 23.4215 13.4436 24.0241 17.474 15.322C17.6774 14.8836 18.1396 14.5996 18.6498 14.5996H45.8036C46.3138 14.5996 46.776 14.8836 46.9794 15.322C51.0128 24.0305 50.7432 23.4214 50.7818 23.5917C50.8208 23.7647 50.8098 23.5285 50.8098 27.3099Z" fill="var(--color-4)"/>
  <path d="M50.8098 27.31C50.8098 29.7091 48.7302 31.6561 46.164 31.6561C43.5984 31.6561 41.5182 29.7101 41.5182 27.31C41.5182 29.7101 39.438 31.6561 36.8725 31.6561C34.3069 31.6561 32.2267 29.7101 32.2267 27.31C32.2267 29.7101 30.1465 31.6561 27.5809 31.6561C25.0153 31.6561 22.9351 29.7101 22.9351 27.31C22.9311 29.6943 20.8333 31.6561 18.2893 31.6561C15.7485 31.6561 13.6476 29.6968 13.6436 27.31C13.6372 23.5121 13.6382 23.7399 13.6716 23.5918H50.7818C50.8208 23.7648 50.8098 23.5286 50.8098 27.31Z" fill="var(--color-5)"/>
  <path d="M45.4574 17.8029C37.3211 16.7553 29.1097 18.099 22.4682 22.7808C21.7206 23.3078 20.8094 23.5918 19.8733 23.5918H13.6717C13.7101 23.4216 13.4436 24.0242 17.474 15.322C17.6775 14.8836 18.1396 14.5996 18.6499 14.5996H45.8037C46.3144 14.5996 46.7763 14.8833 46.9794 15.3217L47.1579 15.707C47.6582 16.787 46.7039 17.9634 45.4574 17.8029Z" fill="var(--color-6)"/>
  <path d="M49.56 34.325V47C49.56 48.6542 48.1214 50 46.3532 50H18.1336C16.3654 50 14.9268 48.6542 14.9268 47V34.325C14.9268 33.9937 15.214 33.725 15.5682 33.725C15.9224 33.725 16.2096 33.9937 16.2096 34.325V47C16.2096 47.9925 17.0727 48.8 18.1336 48.8H25.1083V38.675C25.1083 37.0208 26.5469 35.675 28.3151 35.675H36.1717C37.9399 35.675 39.3785 37.0208 39.3785 38.675V46.4C39.3785 46.7313 39.0913 47 38.7371 47C38.3829 47 38.0958 46.7313 38.0958 46.4V38.675C38.0958 37.6825 37.2326 36.875 36.1717 36.875H28.3151C27.2542 36.875 26.3911 37.6825 26.3911 38.675V48.8H31.6021V39.35C31.6021 39.0187 31.8892 38.75 32.2434 38.75C32.5976 38.75 32.8848 39.0187 32.8848 39.35V48.8H46.3532C47.4141 48.8 48.2773 47.9925 48.2773 47V34.325C48.2773 33.9937 48.5644 33.725 48.9186 33.725C49.2728 33.725 49.56 33.9936 49.56 34.325ZM17.1716 23.6C17.1716 23.9314 17.4587 24.2 17.8129 24.2C52.7081 24.2 50.9779 24.2584 51.2329 24.0754C51.3661 23.9795 51.4533 23.8411 51.4772 23.683C51.5129 23.4419 51.7431 24.0349 47.2623 14.3614C47.1606 14.142 46.9295 14 46.6738 14H17.8129C17.5573 14 17.326 14.142 17.2244 14.3614L13.0556 23.3614C12.9819 23.5206 13.0027 23.268 13.0027 27.3224C13.0073 30.0513 15.3809 32.2714 18.2939 32.2714C20.2964 32.2714 22.044 31.2222 22.9423 29.6797C24.9486 33.129 30.2333 33.1328 32.2433 29.682C34.2517 33.13 39.5341 33.1308 41.543 29.682C42.4406 31.2232 44.1884 32.2714 46.1928 32.2714C49.1104 32.2714 51.484 30.0509 51.484 27.3214C51.484 26.9901 51.1968 26.7214 50.8426 26.7214C50.4884 26.7214 50.2013 26.9901 50.2013 27.3214C50.2013 29.3892 48.4031 31.0714 46.1928 31.0714C43.9825 31.0714 42.1843 29.3892 42.1843 27.3214C42.1843 26.9901 41.8972 26.7214 41.543 26.7214C41.1888 26.7214 40.9016 26.9901 40.9016 27.3214C40.9016 29.3892 39.1034 31.0714 36.8932 31.0714C34.6829 31.0714 32.8847 29.3892 32.8847 27.3214C32.8847 26.9901 32.5975 26.7214 32.2433 26.7214C31.8891 26.7214 31.602 26.9901 31.602 27.3214C31.602 29.3892 29.8038 31.0714 27.5935 31.0714C25.4324 31.0714 23.585 29.4466 23.585 27.2914C23.585 26.9601 23.2979 26.6914 22.9437 26.6914C22.5895 26.6914 22.3023 26.9601 22.3023 27.2914C22.3023 29.4284 20.4665 31.0714 18.2939 31.0714C16.0871 31.0714 14.2889 29.3887 14.2854 27.3214V23.7244L18.234 15.2H46.2528L49.8658 23H17.8129C17.4587 23 17.1716 23.2686 17.1716 23.6Z" fill="var(--color-7)"/>
</symbol>
<symbol id="icon3" width="25" height="36" viewBox="0 0 25 36" fill="none">
  <path d="M21.1925 0.600098C22.6091 0.600098 23.7579 1.67485 23.7579 3.0001V33.0001C23.7579 34.3254 22.6091 35.4001 21.1925 35.4001H3.55512C2.13852 35.4001 0.989685 34.3254 0.989685 33.0001V3.0001C0.989685 1.67485 2.13852 0.600098 3.55512 0.600098H21.1925Z" fill="var(--color-1)"/>
  <path d="M16.4079 13.479C17.022 13.479 17.5366 13.9118 17.6032 14.4825L18.461 21.8535C18.5388 22.5188 17.9816 23.1 17.2657 23.1H7.48176C6.76585 23.1 6.20867 22.5188 6.28643 21.8535L7.14425 14.4825C7.21079 13.9118 7.72548 13.479 8.33958 13.479H16.4079Z" fill="var(--color-2)"/>
  <path d="M21.3138 0.602744C23.3769 0.692519 23.2675 3.60012 21.2021 3.60012H12.8549C8.07295 3.60012 4.19649 7.22659 4.19649 11.7001V35.4001H3.55513C2.13828 35.4001 0.989685 34.3256 0.989685 33.0001V3.00012C0.989685 1.67464 2.13828 0.600119 3.55513 0.600119C3.67121 0.600119 21.2196 0.598619 21.3138 0.602744Z" fill="var(--color-3)"/>
  <path d="M23.7579 30.1501V33.0001C23.7579 34.3254 22.6091 35.4001 21.1925 35.4001H3.55512C2.13852 35.4001 0.989685 34.3254 0.989685 33.0001V30.1501H23.7579Z" fill="var(--color-4)"/>
  <path d="M4.19647 30.1501V33.009C4.19647 34.9636 0.989685 35.0635 0.989685 33.0001V30.1501H4.19647Z" fill="var(--color-5)"/>
  <path d="M16.4081 15.729C12.5233 15.729 9.34781 18.4649 8.93782 21.9895C8.8643 22.6214 8.29389 23.1 7.61445 23.1H7.48177C6.76585 23.1 6.20867 22.5188 6.28643 21.8535L7.14425 14.4825C7.21079 13.9118 7.72549 13.479 8.33959 13.479H16.4079C17.0215 13.479 17.5368 13.9113 17.6032 14.4821C17.6809 15.149 17.1226 15.729 16.4081 15.729Z" fill="var(--color-6);"/>
  <path d="M21.1924 0H3.55506C1.78683 0 0.348267 1.3458 0.348267 3V33C0.348267 34.6542 1.78683 36 3.55506 36H21.1924C22.9606 36 24.3992 34.6542 24.3992 33V3C24.3992 1.3458 22.9606 0 21.1924 0ZM21.1924 34.8H3.55506C2.49417 34.8 1.63098 33.9925 1.63098 33V3C1.63098 2.00745 2.49417 1.2 3.55506 1.2H21.1924C22.2533 1.2 23.1165 2.00745 23.1165 3V29.55H4.75761C4.40341 29.55 4.11625 29.8187 4.11625 30.15C4.11625 30.4814 4.40341 30.75 4.75761 30.75H23.1165V33C23.1165 33.9925 22.2533 34.8 21.1924 34.8ZM13.8168 32.625C13.8168 32.9564 13.5296 33.225 13.1754 33.225H11.572C11.2178 33.225 10.9307 32.9564 10.9307 32.625C10.9307 32.2937 11.2178 32.025 11.572 32.025H13.1754C13.5296 32.025 13.8168 32.2937 13.8168 32.625ZM7.48177 23.7H17.2657C18.3626 23.7 19.2174 22.8079 19.0988 21.7883L18.241 14.4176C18.139 13.5407 17.3508 12.8794 16.408 12.8794H15.8142V11.7686C15.8141 9.99383 14.2708 8.55 12.3737 8.55C10.4767 8.55 8.93333 9.99383 8.93333 11.7686V12.8793H8.33959C7.39663 12.8793 6.60865 13.5406 6.50651 14.4176L5.64877 21.7883C5.53004 22.8084 6.38553 23.7 7.48177 23.7ZM6.92387 21.9182L7.78161 14.5475C7.81272 14.2806 8.0525 14.0793 8.33951 14.0793H8.93325V15.0155C8.93325 15.3469 9.22042 15.6155 9.57461 15.6155C9.9288 15.6155 10.216 15.3469 10.216 15.0155V11.7686C10.216 10.6556 11.1839 9.75 12.3737 9.75C13.5635 9.75 14.5313 10.6555 14.5313 11.7686V12.8794H11.7571C11.403 12.8794 11.1158 13.148 11.1158 13.4794C11.1158 13.8107 11.403 14.0794 11.7571 14.0794H14.5313V15.0155C14.5313 15.3469 14.8185 15.6155 15.1727 15.6155C15.5269 15.6155 15.8141 15.3469 15.8141 15.0155V14.0794H16.4078C16.6948 14.0794 16.9346 14.2807 16.9657 14.5475L17.8234 21.9182C17.8595 22.2284 17.6012 22.5 17.2655 22.5H7.48177C7.14763 22.5 6.88772 22.2296 6.92387 21.9182Z" fill="var(--color-7)"/>
</symbol>
  <symbol id="icon1" width="64" height="65" viewBox="0 0 64 65" fill="none">
  <path d="M0.5 16.5C0.5 7.93959 7.43959 1 16 1H48C56.5604 1 63.5 7.93959 63.5 16.5V48.5C63.5 57.0604 56.5604 64 48 64H16C7.43959 64 0.5 57.0604 0.5 48.5V16.5Z" stroke="#1565D8" stroke-opacity="0.1"/>
  <path d="M46.2795 31.0316C47.0538 32.2861 46.1253 33.8616 44.5777 33.9175C38.9265 34.1244 33.1644 35.4448 27.7319 38.0443L25.9356 39.014C25.9356 39.0216 25.9108 38.9744 30.2839 46.0894C30.6851 46.7404 30.447 47.572 29.7518 47.9481L28.335 48.7132C27.6399 49.0885 26.7502 48.8657 26.3489 48.2147L21.9869 41.1469L21.2789 41.5298C19.8879 42.2806 18.1093 41.8349 17.306 40.5336L14.0347 35.2331C13.2322 33.9318 13.7086 32.268 15.0996 31.5165L21.5526 28.0309C26.4842 25.0465 30.6632 21.095 33.7958 16.4466C34.6217 15.2208 36.5439 15.2563 37.3182 16.5108L40.1172 21.0469C41.7254 20.1784 43.7825 20.6942 44.7109 22.1987C45.6393 23.7032 45.0879 25.6269 43.4797 26.4954L46.2795 31.0316Z" fill="var(--color-1)"/>
  <path d="M44.7108 22.1987C45.6392 23.7032 45.0878 25.6269 43.4796 26.4955L40.1171 21.0469C41.7253 20.1784 43.7824 20.6942 44.7108 22.1987Z" fill="var(--color-2)"/>
  <path d="M37.3181 16.5108C37.7044 17.1372 37.6797 17.9143 37.2522 18.5168C33.8039 23.3775 29.1821 27.7696 23.5297 31.1909L15.9691 35.2746C15.45 35.5556 15.039 35.9446 14.7516 36.3939L14.0347 35.2331C13.2322 33.9318 13.7086 32.2679 15.0996 31.5164L21.5526 28.0309C26.4842 25.0465 30.6632 21.0949 33.7958 16.4466C34.6217 15.2208 36.5439 15.2564 37.3181 16.5108Z" fill="var(--color-3)"/>
  <path d="M21.5526 28.031L27.7319 38.0443C26.4936 38.7128 22.5154 40.8612 21.2789 41.5299C19.8879 42.2806 18.1093 41.835 17.306 40.5337L14.0347 35.2332C13.2322 33.9319 13.7086 32.2681 15.0996 31.5166L21.5526 28.031Z" fill="var(--color-4)"/>
  <path d="M23.5094 31.2023C15.2984 35.6369 15.8426 35.3283 15.5777 35.5212C15.0788 35.8842 14.3508 35.7452 14.0345 35.2332C13.232 33.9319 13.7084 32.268 15.0994 31.5165L21.5524 28.031L23.5094 31.2023Z" fill="var(--color-5)"/>
  <path d="M27.1118 40.928C24.8145 42.1725 26.5047 41.2567 23.1672 43.0586L21.9869 41.1471L25.9355 39.015L27.1118 40.928Z" fill="var(--color-6)"/>
  <path d="M44.5098 25.6313C44.2434 25.9735 43.897 26.2703 43.4796 26.4954L40.1171 21.047C40.5345 20.8211 40.9826 20.6897 41.4322 20.6444C41.6015 20.9187 44.3621 25.3922 44.5098 25.6313Z" fill="var(--color-7)"/>
  <path d="M44.3357 27.0215C46.8562 25.0404 45.9856 21.1226 42.836 20.3107C42.013 20.0985 41.161 20.1426 40.38 20.4289L37.8774 16.2579C36.859 14.5606 34.3333 14.5156 33.2489 16.1705C30.1708 20.8684 26.07 24.8641 21.2015 27.8962C20.9243 28.0685 20.8215 28.4246 20.9855 28.7144C21.0119 28.7608 25.1572 35.6688 25.1846 35.7145C25.3629 36.0116 25.7577 36.1137 26.0669 35.942C26.3758 35.7704 26.4816 35.3903 26.3033 35.093L22.416 28.6141C27.0582 25.6279 31.1696 21.6745 34.3416 16.8334C34.9089 15.9675 36.2276 15.9943 36.7587 16.8794L45.7197 31.8144C46.2515 32.7006 45.614 33.8118 44.5526 33.8516C38.598 34.0748 32.768 35.5403 27.4377 38.1636C27.415 38.1747 21.3717 41.5326 20.9555 41.7638C19.8752 42.364 18.489 42.0066 17.8654 40.9671L14.5941 35.5146C13.9704 34.4752 14.3418 33.1414 15.4221 32.5412L19.3593 30.3539C19.6682 30.1823 19.7741 29.8022 19.5957 29.5049C19.4174 29.2076 19.0223 29.1059 18.7135 29.2775L14.7762 31.4648C13.0792 32.4076 12.4956 34.5031 13.4754 36.1361L16.7469 41.5885C17.7267 43.2216 19.9045 43.7829 21.6015 42.8401L21.7505 42.7574L25.7895 49.489C26.3696 50.4559 27.6525 50.7871 28.6579 50.2286L30.0746 49.4416C31.0797 48.8832 31.4234 47.6487 30.8431 46.6815L27.9806 41.9106C27.8022 41.6134 27.4072 41.5116 27.0983 41.6832C26.7894 41.8548 26.6836 42.2349 26.8619 42.5321L29.7245 47.303C29.9478 47.6751 29.8156 48.1503 29.4287 48.3651L28.0121 49.1522C27.6253 49.367 27.1315 49.2397 26.9082 48.8675L22.8692 42.1359L28.0406 39.2629C33.101 36.775 38.7307 35.3136 44.603 35.0935C46.6381 35.0171 47.8553 32.8873 46.8384 31.1928L44.3357 27.0215ZM44.1512 22.7291C44.7888 23.7919 44.5598 25.1106 43.6771 25.9239L41.0384 21.526C42.1952 21.1994 43.5033 21.6492 44.1512 22.7291ZM50.4682 19.9661L48.7971 20.8945C48.488 21.0662 48.0931 20.9642 47.9149 20.6671C47.7365 20.3699 47.8424 19.9897 48.1513 19.8181L49.8224 18.8897C50.1315 18.718 50.5264 18.82 50.7046 19.1172C50.883 19.4144 50.7771 19.7945 50.4682 19.9661ZM43.2815 16.424L43.6891 14.9608C43.7814 14.6292 44.1354 14.4326 44.4802 14.5213C44.8247 14.6102 45.0292 14.951 44.9368 15.2824L44.5293 16.7457C44.4371 17.0764 44.0839 17.274 43.7382 17.1852C43.3937 17.0963 43.1892 16.7556 43.2815 16.424ZM51.7287 26.6022C51.6514 26.8798 51.3904 27.0629 51.1052 27.0629C50.9883 27.0629 51.0701 27.0757 49.4169 26.6495C49.0724 26.5606 48.8679 26.2199 48.9602 25.8883C49.0526 25.5568 49.4067 25.3602 49.7512 25.4489L51.272 25.8409C51.6165 25.9298 51.8211 26.2706 51.7287 26.6022Z" fill="var(--color-8)"/>
</symbol>
</svg>
